<?xml version="1.0" encoding="utf-8"?>
<!-- Generator: Adobe Illustrator 19.0.0, SVG Export Plug-In . SVG Version: 6.00 Build 0)  -->
<svg version="1.1" id="Layer_1" xmlns="http://www.w3.org/2000/svg" xmlns:xlink="http://www.w3.org/1999/xlink" x="0px" y="0px"
	 viewBox="0 0 249 137.5" style="enable-background:new 0 0 249 137.5;" xml:space="preserve">
<style type="text/css">
	.st0{fill:none;}
	.st1{fill:white;}
	.st2{font-family:'helvetica';}
	.st3{font-size:42px;}
	.st4{font-size:36px;}
	.st5{fill:none;stroke:white;stroke-linecap:round;stroke-miterlimit:10;}
	.st6{fill:none;stroke:white;stroke-width:3;stroke-linecap:round;stroke-miterlimit:10;}
</style>
<rect id="XMLID_8_" x="79.9" y="81.4" class="st0" width="206.7" height="56.1"/>
<text id="XMLID_9_" transform="matrix(1 0 0 1 79.9129 110.3255)"><tspan x="0" y="0" class="st1 st2 st3">K</tspan><tspan x="21.8" y="0" class="st1 st2 st4">itaabwala</tspan></text>
<path id="XMLID_7_" class="st1" d="M61.9,28.5C54.1,26.4,48.4,25.4,42,28c-32.4,12.9-24,39.2-18.8,50c1.2,2.5,2.7,4.9,4.4,7.1
	l22.8,29.6c0.8,1.1,2.4,1.2,3.3,0.2c6.3-6.9,21.8-28.6,22.9-30.4c0-0.1,0.1-0.1,0.1-0.2C100,51.9,77.4,32.8,61.9,28.5z M51.9,87.4
	c-14.5,0-26.2-12-26.2-26.8c0-14.8,11.7-26.8,26.2-26.8s26.2,12,26.2,26.8C78.1,75.4,66.3,87.4,51.9,87.4z"/>
<g id="XMLID_1_">
	<path id="XMLID_3_" class="st5" d="M50.4,49.2l0,21.3c0-2.7-5.7-6.5-11.5-5.5l0-21.7C38.9,43.4,46.3,43.6,50.4,49.2z"/>
	<path id="XMLID_4_" class="st5" d="M65.9,49.2c0,0-6.3-4.5-15.5-0.3v21.3c0,0,1.5-0.7,3.5-0.8c0,0,2.9-9.1,12-4.7V49.2z"/>
	<path id="XMLID_12_" class="st5" d="M38.7,45.4c0,0-2.9,0.9-2.9,1.9v21.2c0,0,9.4-2.7,14.7,1.7"/>
	<circle id="XMLID_10_" class="st5" cx="61.5" cy="70.9" r="7.2"/>
	<line id="XMLID_13_" class="st6" x1="66.9" y1="77.2" x2="73.2" y2="83.6"/>
	<path id="XMLID_11_" class="st5" d="M56.7,70.5c0,0,0.8-3.9,4.8-3.9"/>
</g>
</svg>
