<?xml version="1.0" encoding="utf-8"?>
<!-- Generator: Adobe Illustrator 19.0.0, SVG Export Plug-In . SVG Version: 6.00 Build 0)  -->
<svg version="1.1" id="Layer_1" xmlns="http://www.w3.org/2000/svg" xmlns:xlink="http://www.w3.org/1999/xlink" x="0px" y="0px"
	 viewBox="0 0 249 83.7" style="enable-background:new 0 0 249 83.7;" xml:space="preserve">
<style type="text/css">
	.st0{fill:#EF6130;}
	.st1{fill:none;stroke:#076384;stroke-linecap:round;stroke-miterlimit:10;}
	.st2{fill:none;stroke:#076384;stroke-width:3;stroke-linecap:round;stroke-miterlimit:10;}
	.st3{fill:none;}
	.st4{fill:white;}
	.st5{font-family:'helvetica';}
	.st6{font-size:40px;}
</style>
<g id="XMLID_9_">
	<path id="XMLID_7_" class="st0" d="M39.7,7.9c-6.1-1.7-10.5-2.4-15.4-0.4C-0.9,17.5,5.6,37.9,9.6,46.4c0.9,2,2.1,3.8,3.4,5.5
		l17.7,23c0.6,0.8,1.9,0.9,2.6,0.1c4.9-5.3,16.9-22.3,17.8-23.7c0,0,0.1-0.1,0.1-0.1C69.3,26.1,51.8,11.2,39.7,7.9z M31.9,53.7
		c-11.3,0-20.4-9.3-20.4-20.9c0-11.5,9.1-20.9,20.4-20.9s20.4,9.3,20.4,20.9C52.3,44.3,43.1,53.7,31.9,53.7z"/>
	<g id="XMLID_1_">
		<path id="XMLID_3_" class="st1" d="M30.8,24l0,16.6c0-2.1-4.4-5-8.9-4.3l0-16.8C21.8,19.5,27.6,19.6,30.8,24z"/>
		<path id="XMLID_4_" class="st1" d="M42.8,24c0,0-4.9-3.5-12.1-0.3v16.6c0,0,1.2-0.5,2.7-0.6c0,0,2.2-7.1,9.3-3.6V24z"/>
		<path id="XMLID_12_" class="st1" d="M21.6,21.1c0,0-2.2,0.7-2.2,1.5V39c0,0,7.3-2.1,11.4,1.3"/>
		<circle id="XMLID_10_" class="st1" cx="39.4" cy="40.8" r="5.6"/>
		<line id="XMLID_13_" class="st2" x1="43.6" y1="45.8" x2="48.5" y2="50.7"/>
		<path id="XMLID_11_" class="st1" d="M35.7,40.5c0,0,0.6-3.1,3.7-3.1"/>
	</g>
</g>
<rect id="XMLID_2_" x="54.8" y="43.9" class="st3" width="224.5" height="31.6"/>
<text id="XMLID_8_" transform="matrix(1 0 0 1 54.827 75.0557)" class="st4 st5 st6">Kitaabwala</text>
</svg>
